<svg width="30" height="30" viewBox="0 0 30 30" fill="none" xmlns="http://www.w3.org/2000/svg">
<g clip-path="url(#clip0_108_107)">
<path d="M26.25 6.875C26.25 5.14911 24.8509 3.75 23.125 3.75H15.625C15.4592 3.75 15.3003 3.81585 15.1831 3.93306L4.80438 14.3117C3.38873 15.7274 3.38873 18.0226 4.80438 19.4383L10.5617 25.1956C11.9774 26.6113 14.2726 26.6113 15.6883 25.1956L26.0669 14.8169C26.1842 14.6997 26.25 14.5408 26.25 14.375V6.875ZM15.8839 5H23.125C24.1605 5 25 5.83947 25 6.875V14.1161L14.8044 24.3117C13.8769 25.2392 12.3731 25.2392 11.4456 24.3117L5.68826 18.5544C4.76077 17.6269 4.76077 16.1231 5.68826 15.1956L15.8839 5ZM20 8.75C20.6904 8.75 21.25 9.30964 21.25 10C21.25 10.6904 20.6904 11.25 20 11.25C19.3096 11.25 18.75 10.6904 18.75 10C18.75 9.30964 19.3096 8.75 20 8.75ZM20 7.5C18.6193 7.5 17.5 8.61929 17.5 10C17.5 11.3807 18.6193 12.5 20 12.5C21.3807 12.5 22.5 11.3807 22.5 10C22.5 8.61929 21.3807 7.5 20 7.5Z" fill="#FF003D"/>
</g>
<defs>
<clipPath id="clip0_108_107">
<rect width="30" height="30" fill="white"/>
</clipPath>
</defs>
</svg>
