<svg width="20" height="20" viewBox="0 0 20 20" fill="none" xmlns="http://www.w3.org/2000/svg">
<g clip-path="url(#clip0_85_104)">
<mask id="mask0_85_104" style="mask-type:luminance" maskUnits="userSpaceOnUse" x="0" y="0" width="20" height="20">
<path d="M20 0H0V20H20V0Z" fill="white"/>
</mask>
<g mask="url(#mask0_85_104)">
<path d="M1.67831 5.72612C1.12294 8.38484 3.21642 11.5498 5.84562 14.1789C8.47486 16.8082 11.6397 18.9017 14.2984 18.3463C16.485 17.8895 17.6013 16.7248 18.2295 15.7323C18.4463 15.3898 18.3369 14.9453 18.0119 14.703L14.9354 12.4081C14.6036 12.1607 14.1404 12.1942 13.8479 12.4868L12.2148 14.1198C12.2148 14.1198 10.6274 13.6038 8.52403 11.5005C6.42071 9.39717 5.90473 7.8098 5.90473 7.8098L7.53777 6.17675C7.83043 5.8841 7.86395 5.421 7.61649 5.08925L5.32157 2.01259C5.07924 1.68771 4.63472 1.5783 4.29226 1.79506C3.29978 2.42329 2.13505 3.53956 1.67831 5.72612Z" stroke="#0019FF" stroke-linecap="round" stroke-linejoin="round"/>
</g>
</g>
<defs>
<clipPath id="clip0_85_104">
<rect width="20" height="20" fill="white"/>
</clipPath>
</defs>
</svg>
