<svg width="20" height="20" viewBox="0 0 20 20" fill="none" xmlns="http://www.w3.org/2000/svg">
<g clip-path="url(#clip0_108_88)">
<path d="M10.0005 0C6.38645 0 3.44629 2.93824 3.44629 6.54988C3.44629 10.0209 9.40262 19.413 9.65617 19.8111C9.73111 19.9287 9.86094 20 10.0005 20C10.14 20 10.2698 19.9287 10.3447 19.8111C10.5982 19.413 16.5545 10.0209 16.5545 6.54988C16.5545 2.93824 13.6144 0 10.0005 0ZM10.0005 18.8215C9.46139 17.9496 8.36743 16.1445 7.28417 14.1444C5.30747 10.4947 4.26266 7.86861 4.26266 6.54988C4.26262 3.38837 6.83662 0.816326 10.0005 0.816326C13.1643 0.816326 15.7382 3.38837 15.7382 6.54988C15.7382 7.86861 14.6933 10.4947 12.7167 14.1444C11.6334 16.1444 10.5395 17.9496 10.0005 18.8215Z" fill="#0019FF"/>
<path d="M10.0008 3.10494C8.29121 3.10494 6.90039 4.45796 6.90039 6.12102C6.90039 7.78404 8.29121 9.13698 10.0008 9.13698C11.7103 9.13698 13.1011 7.78404 13.1011 6.12102C13.1011 4.45796 11.7103 3.10494 10.0008 3.10494ZM10.0008 8.32062C8.74137 8.32062 7.71672 7.33388 7.71672 6.12098C7.71672 4.90804 8.74137 3.92123 10.0008 3.92123C11.2601 3.92123 12.2848 4.90804 12.2848 6.12098C12.2848 7.33388 11.2602 8.32062 10.0008 8.32062Z" fill="#0019FF"/>
</g>
<defs>
<clipPath id="clip0_108_88">
<rect width="20" height="20" fill="white"/>
</clipPath>
</defs>
</svg>
