<svg width="30" height="30" viewBox="0 0 30 30" fill="none" xmlns="http://www.w3.org/2000/svg">
<g clip-path="url(#clip0_108_63)">
<path d="M25.5 0H4.5C2.01472 0 0 2.01472 0 4.5V25.5C0 27.9853 2.01472 30 4.5 30H25.5C27.9853 30 30 27.9853 30 25.5V4.5C30 2.01472 27.9853 0 25.5 0Z" fill="#27A6E7"/>
<path d="M11.6602 23.6719C11.0156 23.6719 11.0742 23.4375 10.8984 22.8516L9.02344 16.6992L23.3789 8.26172" fill="#C8DAEA"/>
<path d="M11.6602 23.6719C12.0703 23.6719 12.3047 23.4375 12.5977 23.2031L15.2344 20.6836L11.9531 18.6914" fill="#A9C9DD"/>
<path d="M11.9535 18.6914L19.8636 24.4922C20.684 25.0195 21.3871 24.7266 21.6215 23.6719L24.8441 8.55468C25.1371 7.26562 24.3168 6.67969 23.4379 7.08984L4.62927 14.3555C3.3988 14.8242 3.3988 15.5859 4.3949 15.8789L9.25818 17.4023L20.391 10.3125C20.9183 10.0195 21.3871 10.1367 21.0355 10.5469" fill="#F6FBFE"/>
</g>
<defs>
<clipPath id="clip0_108_63">
<rect width="30" height="30" fill="white"/>
</clipPath>
</defs>
</svg>
