<svg width="30" height="30" viewBox="0 0 30 30" fill="none" xmlns="http://www.w3.org/2000/svg">
<g clip-path="url(#clip0_108_59)">
<path d="M25.5 0H4.5C2.01472 0 0 2.01472 0 4.5V25.5C0 27.9853 2.01472 30 4.5 30H25.5C27.9853 30 30 27.9853 30 25.5V4.5C30 2.01472 27.9853 0 25.5 0Z" fill="#21D163"/>
<path d="M5.53991 25L6.5544 20.305C5.25048 18.255 4.74182 15.8012 5.12385 13.404C5.50588 11.0068 6.75234 8.83084 8.62938 7.2845C10.5064 5.73816 12.885 4.92766 15.3189 5.00507C17.7528 5.08249 20.0748 6.04249 21.8491 7.70497C23.6234 9.36745 24.7282 11.6182 24.9561 14.0348C25.184 16.4514 24.5194 18.8679 23.087 20.8309C21.6547 22.7939 19.5529 24.1684 17.1761 24.6966C14.7993 25.2248 12.3109 24.8704 10.1776 23.6999L5.53991 25Z" fill="#21D163" stroke="white" stroke-width="2"/>
<path d="M18.0465 15.9961C17.8708 15.8789 17.695 15.8203 17.5192 16.0547L16.8161 16.9922C16.6403 17.1094 16.5231 17.168 16.2887 17.0508C15.4098 16.582 14.1794 16.0547 13.1247 14.2969C13.0661 14.0625 13.1833 13.9453 13.3004 13.8281L13.8278 13.0078C13.945 12.8906 13.8864 12.7734 13.8278 12.6563L13.1247 10.957C12.9489 10.4883 12.7731 10.5469 12.5973 10.5469H12.1286C12.0114 10.5469 11.777 10.6055 11.5426 10.8398C10.2536 12.1289 10.7809 13.9453 11.7184 15.1172C11.8942 15.3516 13.0661 17.4609 15.5856 18.5742C17.4606 19.3945 17.8708 19.2773 18.3981 19.1602C19.0426 19.1016 19.6872 18.5742 19.9801 18.0469C20.0387 17.8711 20.3317 17.1094 20.0973 16.9922" fill="white"/>
</g>
<defs>
<clipPath id="clip0_108_59">
<rect width="30" height="30" fill="white"/>
</clipPath>
</defs>
</svg>
