<svg width="78" height="72" viewBox="0 0 78 72" fill="none" xmlns="http://www.w3.org/2000/svg">
<path d="M42.6512 4.4939C42.3367 4.49739 42.0362 4.6165 41.8144 4.82556L39.0699 7.40752L36.3137 4.82569C36.0888 4.61613 35.7846 4.49857 35.4676 4.49857C35.1505 4.49857 34.8463 4.61613 34.6215 4.82569L31.8676 7.40752L29.1113 4.82569C28.8865 4.61614 28.5823 4.49857 28.2652 4.49857C27.9482 4.49857 27.644 4.61614 27.4191 4.82569L24.6652 7.40752L21.9184 4.82569C21.8043 4.71989 21.6688 4.63658 21.5199 4.58071C21.371 4.52484 21.2116 4.49751 21.0512 4.50038C20.7393 4.50333 20.4409 4.62002 20.2191 4.82569L16.6215 8.20516C16.5093 8.30969 16.4204 8.43394 16.3596 8.57082C16.2989 8.7077 16.2676 8.85441 16.2676 9.00266V62.9983C16.2676 63.1465 16.2989 63.2933 16.3596 63.4301C16.4204 63.567 16.5093 63.6914 16.6215 63.7959L20.2191 67.1688C20.3306 67.2735 20.463 67.3565 20.6088 67.4132C20.7546 67.47 20.9109 67.4991 21.0687 67.4991C21.2266 67.4991 21.3829 67.47 21.5287 67.4132C21.6744 67.3565 21.8069 67.2735 21.9184 67.1688L24.6652 64.5936L27.4191 67.1688C27.644 67.3783 27.9482 67.4959 28.2652 67.4959C28.5823 67.4959 28.8865 67.3783 29.1113 67.1688L31.8676 64.5936L34.6215 67.1688C34.8463 67.3783 35.1505 67.4959 35.4676 67.4959C35.7846 67.4959 36.0888 67.3783 36.3137 67.1688L39.0699 64.5936L41.8144 67.1688C41.926 67.2739 42.0585 67.3573 42.2045 67.4142C42.3506 67.4711 42.5071 67.5003 42.6652 67.5003C42.8233 67.5003 42.9799 67.4711 43.1259 67.4142C43.2719 67.3573 43.4045 67.2739 43.516 67.1688L46.2605 64.5847L49.0168 67.1688C49.1283 67.2739 49.2609 67.3573 49.4069 67.4142C49.5529 67.4711 49.7095 67.5003 49.8676 67.5003C50.0257 67.5003 50.1823 67.4711 50.3283 67.4142C50.4743 67.3573 50.6068 67.2739 50.7184 67.1688L53.4723 64.5847L56.2191 67.1688C56.3306 67.2735 56.463 67.3565 56.6088 67.4132C56.7546 67.47 56.9109 67.4991 57.0687 67.4991C57.2266 67.4991 57.3829 67.47 57.5287 67.4132C57.6744 67.3565 57.8069 67.2735 57.9184 67.1688L61.516 63.7959C61.6281 63.6914 61.7171 63.567 61.7779 63.4301C61.8386 63.2933 61.8699 63.1465 61.8699 62.9983V9.00266C61.8699 8.85441 61.8386 8.7077 61.7779 8.57082C61.7171 8.43394 61.6281 8.30969 61.516 8.20516L57.9184 4.82569C57.8069 4.72094 57.6744 4.6378 57.5287 4.5811C57.3829 4.52439 57.2266 4.49519 57.0687 4.49519C56.9109 4.49519 56.7546 4.52439 56.6088 4.5811C56.463 4.6378 56.3306 4.72094 56.2191 4.82569L53.4723 7.40752L50.7184 4.82569C50.6068 4.72061 50.4743 4.63722 50.3283 4.58032C50.1823 4.52341 50.0257 4.49416 49.8676 4.49416C49.7095 4.49416 49.5529 4.52341 49.4069 4.58032C49.2609 4.63722 49.1283 4.72061 49.0168 4.82569L46.2605 7.40752L43.516 4.82569C43.4028 4.719 43.268 4.63469 43.1194 4.57772C42.9709 4.52075 42.8117 4.49215 42.6512 4.4939ZM21.0676 7.21639L23.8144 9.79147C23.926 9.89656 24.0585 9.97994 24.2045 10.0368C24.3506 10.0937 24.5071 10.1231 24.6652 10.1231C24.8233 10.1231 24.9799 10.0937 25.1259 10.0368C25.2719 9.97994 25.4045 9.89656 25.516 9.79147L28.2605 7.21639L31.0168 9.79147C31.1283 9.89655 31.2609 9.97994 31.4069 10.0368C31.5529 10.0937 31.7095 10.1231 31.8676 10.1231C32.0257 10.1231 32.1822 10.0937 32.3283 10.0368C32.4743 9.97994 32.6068 9.89655 32.7183 9.79147L35.4723 7.21639L38.2191 9.79147C38.3306 9.89622 38.463 9.97936 38.6088 10.0361C38.7546 10.0928 38.9109 10.122 39.0687 10.122C39.2266 10.122 39.3829 10.0928 39.5287 10.0361C39.6744 9.97936 39.8069 9.89622 39.9184 9.79147L42.6652 7.21639L45.4191 9.79147C45.644 10.001 45.9482 10.1187 46.2652 10.1187C46.5823 10.1187 46.8865 10.001 47.1113 9.79147L49.8676 7.21639L52.6215 9.79147C52.8463 10.001 53.1505 10.1187 53.4676 10.1187C53.7846 10.1187 54.0888 10.001 54.3137 9.79147L57.0676 7.21639L59.4699 9.46629V62.5347L57.0676 64.7847L54.3137 62.2007C54.0888 61.9911 53.7846 61.8735 53.4676 61.8735C53.1505 61.8735 52.8463 61.9911 52.6215 62.2007L49.8676 64.7847L47.1113 62.2007C46.8865 61.9911 46.5823 61.8735 46.2652 61.8735C45.9482 61.8735 45.644 61.9911 45.4191 62.2007L42.6652 64.7847L39.9184 62.2007C39.8069 62.0959 39.6744 62.0129 39.5287 61.9562C39.3829 61.8995 39.2266 61.8703 39.0687 61.8703C38.9109 61.8703 38.7546 61.8995 38.6088 61.9562C38.463 62.0129 38.3306 62.0959 38.2191 62.2007L35.4723 64.7847L32.7183 62.2007C32.6068 62.0956 32.4743 62.0122 32.3283 61.9553C32.1822 61.8984 32.0257 61.8691 31.8676 61.8691C31.7095 61.8691 31.5529 61.8984 31.4069 61.9553C31.2609 62.0122 31.1283 62.0956 31.0168 62.2007L28.2605 64.7847L25.516 62.2007C25.4045 62.0956 25.2719 62.0122 25.1259 61.9553C24.9799 61.8984 24.8233 61.8691 24.6652 61.8691C24.5071 61.8691 24.3506 61.8984 24.2045 61.9553C24.0585 62.0122 23.926 62.0956 23.8144 62.2007L21.0676 64.7847L18.6676 62.5347V9.46629L21.0676 7.21639ZM30.6535 14.6167C30.4957 14.6182 30.3398 14.6488 30.1947 14.7068C30.0495 14.7648 29.918 14.849 29.8076 14.9547C29.6972 15.0605 29.6102 15.1856 29.5514 15.3229C29.4927 15.4602 29.4634 15.6069 29.4652 15.7548V18.1192C26.735 18.6465 24.6652 20.9245 24.6652 23.6342C24.6652 26.731 27.369 29.2571 30.6723 29.2571C32.6874 29.2571 34.2676 30.7406 34.2676 32.6298C34.2676 34.4827 32.7443 35.9424 30.7848 35.9983C30.7412 35.9932 30.6974 35.9904 30.6535 35.9898C30.6175 35.9912 30.5815 35.9939 30.5457 35.9983C28.5925 35.9358 27.0653 34.4783 27.0653 32.6298C27.0688 32.48 27.0404 32.331 26.9817 32.1916C26.923 32.0522 26.8352 31.9252 26.7234 31.8181C26.6116 31.7109 26.4781 31.6258 26.3308 31.5676C26.1834 31.5095 26.0252 31.4795 25.8653 31.4795C25.7054 31.4795 25.5471 31.5095 25.3998 31.5676C25.2524 31.6258 25.1189 31.7109 25.0072 31.8181C24.8954 31.9252 24.8075 32.0522 24.7488 32.1916C24.6901 32.331 24.6617 32.48 24.6653 32.6298C24.6653 35.3395 26.7351 37.6177 29.4653 38.145V40.5092C29.4653 40.8079 29.5918 41.0944 29.8171 41.3056C30.0424 41.5168 30.3479 41.6354 30.6665 41.6354C30.985 41.6354 31.2905 41.5168 31.5158 41.3056C31.7411 41.0944 31.8676 40.8079 31.8676 40.5092V38.1472C34.6008 37.6233 36.6676 35.3426 36.6676 32.6298C36.6676 29.533 33.9755 27.0071 30.6723 27.0071C28.6572 27.0071 27.0653 25.5234 27.0653 23.6342C27.0653 21.7563 28.6391 20.2748 30.6372 20.2571C30.6621 20.2586 30.6871 20.2593 30.7122 20.2593C32.7076 20.2806 34.2676 21.7581 34.2676 23.6344C34.2746 23.9284 34.4041 24.2082 34.6284 24.4138C34.8526 24.6195 35.1539 24.7347 35.4676 24.7347C35.7814 24.7347 36.0826 24.6195 36.3069 24.4138C36.5312 24.2082 36.6607 23.9284 36.6676 23.6344C36.6676 20.9216 34.6008 18.6409 31.8676 18.117V15.755C31.8695 15.605 31.8394 15.4562 31.779 15.3173C31.7187 15.1784 31.6293 15.0522 31.5162 14.9462C31.4031 14.8401 31.2685 14.7565 31.1204 14.6999C30.9722 14.6433 30.8135 14.615 30.6535 14.6167ZM41.4699 18.0049C41.31 18.0015 41.1511 18.0281 41.0023 18.0831C40.8535 18.1381 40.718 18.2204 40.6036 18.3253C40.4893 18.4301 40.3984 18.5552 40.3364 18.6934C40.2744 18.8316 40.2424 18.98 40.2424 19.1299C40.2424 19.2798 40.2744 19.4282 40.3364 19.5664C40.3984 19.7046 40.4893 19.8297 40.6036 19.9345C40.718 20.0393 40.8535 20.1217 41.0023 20.1767C41.1511 20.2317 41.31 20.2583 41.4699 20.2549H53.4629C53.6228 20.2583 53.7817 20.2317 53.9305 20.1767C54.0793 20.1217 54.2148 20.0393 54.3292 19.9345C54.4435 19.8297 54.5344 19.7046 54.5964 19.5664C54.6584 19.4282 54.6904 19.2798 54.6904 19.1299C54.6904 18.98 54.6584 18.8316 54.5964 18.6934C54.5344 18.5552 54.4435 18.4301 54.3292 18.3253C54.2148 18.2204 54.0793 18.1381 53.9305 18.0831C53.7817 18.0281 53.6228 18.0015 53.4629 18.0049H41.4699ZM41.3457 27.0071C41.0323 27.0287 40.7404 27.1645 40.5325 27.3855C40.3246 27.6064 40.2173 27.8949 40.2335 28.1891C40.2498 28.4833 40.3883 28.7598 40.6194 28.9595C40.8505 29.1591 41.1558 29.266 41.4699 29.2571H53.4629C53.6227 29.2604 53.7816 29.2337 53.9302 29.1786C54.0789 29.1236 54.2143 29.0413 54.3286 28.9365C54.4428 28.8317 54.5336 28.7065 54.5956 28.5684C54.6575 28.4302 54.6895 28.282 54.6895 28.1321C54.6895 27.9823 54.6575 27.8338 54.5956 27.6957C54.5336 27.5576 54.4428 27.4325 54.3286 27.3277C54.2143 27.2229 54.0789 27.1407 53.9302 27.0856C53.7816 27.0305 53.6227 27.0038 53.4629 27.0071H41.4699C41.4285 27.0051 41.3871 27.0051 41.3457 27.0071ZM41.3457 36.0093C41.0325 36.0311 40.7408 36.167 40.5332 36.3879C40.3255 36.6088 40.2183 36.8972 40.2345 37.1913C40.2508 37.4853 40.3891 37.7617 40.62 37.9613C40.8509 38.1609 41.156 38.2679 41.4699 38.2593H53.4629C53.6228 38.2627 53.7818 38.2361 53.9305 38.1811C54.0793 38.1261 54.2149 38.0438 54.3292 37.939C54.4436 37.8342 54.5344 37.709 54.5965 37.5708C54.6585 37.4326 54.6905 37.2842 54.6905 37.1343C54.6905 36.9844 54.6585 36.836 54.5965 36.6978C54.5344 36.5596 54.4436 36.4344 54.3292 36.3295C54.2149 36.2247 54.0793 36.1424 53.9305 36.0874C53.7818 36.0324 53.6228 36.0059 53.4629 36.0093H41.4699C41.4285 36.0073 41.3871 36.0073 41.3457 36.0093ZM24.6652 45.0027C24.5054 44.9994 24.3465 45.0261 24.1979 45.0812C24.0492 45.1363 23.9138 45.2185 23.7995 45.3233C23.6853 45.4281 23.5945 45.5532 23.5325 45.6913C23.4706 45.8295 23.4386 45.9779 23.4386 46.1277C23.4386 46.2776 23.4706 46.4258 23.5325 46.564C23.5945 46.7021 23.6853 46.8273 23.7995 46.9321C23.9138 47.0369 24.0492 47.1192 24.1979 47.1742C24.3465 47.2293 24.5054 47.256 24.6652 47.2527H53.4629C53.6227 47.256 53.7816 47.2293 53.9302 47.1742C54.0789 47.1192 54.2143 47.0369 54.3286 46.9321C54.4428 46.8273 54.5336 46.7021 54.5956 46.564C54.6575 46.4258 54.6895 46.2776 54.6895 46.1277C54.6895 45.9779 54.6575 45.8295 54.5956 45.6913C54.5336 45.5532 54.4428 45.4281 54.3286 45.3233C54.2143 45.2185 54.0789 45.1363 53.9302 45.0812C53.7816 45.0261 53.6227 44.9994 53.4629 45.0027H24.6652ZM24.6652 54.0049C24.5054 54.0016 24.3465 54.0282 24.1979 54.0833C24.0492 54.1383 23.9138 54.2208 23.7995 54.3255C23.6853 54.4303 23.5945 54.5554 23.5325 54.6935C23.4706 54.8317 23.4386 54.9801 23.4386 55.1299C23.4386 55.2798 23.4706 55.4281 23.5325 55.5662C23.5945 55.7043 23.6853 55.8295 23.7995 55.9343C23.9138 56.0391 24.0492 56.1214 24.1979 56.1764C24.3465 56.2315 24.5054 56.2582 24.6652 56.2549H53.4629C53.6227 56.2582 53.7816 56.2315 53.9302 56.1764C54.0789 56.1214 54.2143 56.0391 54.3286 55.9343C54.4428 55.8295 54.5336 55.7043 54.5956 55.5662C54.6575 55.4281 54.6895 55.2798 54.6895 55.1299C54.6895 54.9801 54.6575 54.8317 54.5956 54.6935C54.5336 54.5554 54.4428 54.4303 54.3286 54.3255C54.2143 54.2208 54.0789 54.1383 53.9302 54.0833C53.7816 54.0282 53.6227 54.0016 53.4629 54.0049H24.6652Z" fill="black"/>
</svg>
