<svg width="78" height="72" viewBox="0 0 78 72" fill="none" xmlns="http://www.w3.org/2000/svg">
<path d="M6.59912 4.50074C6.28249 4.50193 5.97919 4.62043 5.7553 4.83033C5.53141 5.04023 5.40507 5.32451 5.40381 5.62135V66.378C5.40507 66.6748 5.53141 66.9591 5.7553 67.169C5.97919 67.3789 6.28249 67.4974 6.59912 67.4986H71.3968C71.715 67.4997 72.0207 67.3823 72.2466 67.1721C72.4726 66.962 72.6002 66.6764 72.6015 66.378V5.62135C72.6002 5.32299 72.4726 5.03736 72.2466 4.82722C72.0207 4.61707 71.715 4.4996 71.3968 4.50074H6.59912ZM7.80381 6.75078H26.9991V28.1257C27.0017 28.4221 27.1288 28.7055 27.353 28.9145L30.9507 32.2962C31.0622 32.401 31.1946 32.4841 31.3404 32.5408C31.4862 32.5975 31.6425 32.6267 31.8003 32.6267C31.9581 32.6267 32.1144 32.5975 32.2602 32.5408C32.406 32.4841 32.5384 32.401 32.6499 32.2962L35.3968 29.7122L38.1507 32.2962C38.3755 32.5058 38.6797 32.6233 38.9968 32.6233C39.3138 32.6233 39.618 32.5058 39.8429 32.2962L42.5991 29.7122L45.353 32.2962C45.5779 32.5058 45.8821 32.6233 46.1991 32.6233C46.5162 32.6233 46.8204 32.5058 47.0452 32.2962L50.6499 28.9145C50.8715 28.7045 50.9961 28.4212 50.9968 28.1257V6.75078H70.2014V65.2486H7.80381V6.75078ZM29.3991 6.75078H48.5944V27.6621L46.1944 29.9033L43.4499 27.3282C43.3384 27.2231 43.2058 27.1397 43.0598 27.0828C42.9138 27.0259 42.7572 26.9965 42.5991 26.9965C42.441 26.9965 42.2844 27.0259 42.1384 27.0828C41.9924 27.1397 41.8599 27.2231 41.7483 27.3282L38.9921 29.9121L36.2476 27.3282C36.136 27.2231 36.0035 27.1397 35.8575 27.0828C35.7115 27.0259 35.5549 26.9965 35.3968 26.9965C35.2387 26.9965 35.0821 27.0259 34.9361 27.0828C34.7901 27.1397 34.6575 27.2231 34.546 27.3282L31.7991 29.9033L29.3991 27.6621V6.75078ZM47.3991 51.7442C47.0854 51.7506 46.7869 51.872 46.5674 52.0822C46.348 52.2925 46.2251 52.5751 46.2251 52.8692C46.2251 53.1634 46.348 53.4458 46.5674 53.6561C46.7869 53.8664 47.0854 53.9878 47.3991 53.9942H64.1944C64.5081 53.9878 64.8067 53.8664 65.0261 53.6561C65.2455 53.4458 65.3684 53.1634 65.3684 52.8692C65.3684 52.5751 65.2455 52.2925 65.0261 52.0822C64.8067 51.872 64.5081 51.7506 64.1944 51.7442H47.3991ZM52.2015 58.4964C51.8879 58.5031 51.5896 58.6245 51.3704 58.8348C51.1512 59.045 51.0285 59.3274 51.0285 59.6214C51.0285 59.9154 51.1512 60.1978 51.3704 60.408C51.5896 60.6183 51.8879 60.7396 52.2015 60.7463H64.1944C64.5079 60.7396 64.8062 60.6183 65.0255 60.408C65.2447 60.1978 65.3674 59.9154 65.3674 59.6214C65.3674 59.3274 65.2447 59.045 65.0255 58.8348C64.8062 58.6245 64.5079 58.5031 64.1944 58.4964H52.2015Z" fill="black"/>
</svg>
