<svg width="81" height="75" viewBox="0 0 81 75" fill="none" xmlns="http://www.w3.org/2000/svg">
<path d="M40.467 4.68579C30.7935 4.68579 22.967 12.0232 22.967 21.092C22.9682 22.7954 23.2735 24.3404 23.675 25.6467C22.501 26.5071 21.7292 27.8296 21.7292 29.3249V31.671C21.7292 34.2476 23.9808 36.3584 26.7292 36.3584H28.2209C28.8345 39.2146 30.5695 41.6811 32.967 43.3714V47.5599L29.9494 50.3912H24.2194C18.0085 50.3912 12.9718 55.1131 12.9718 60.9359V69.1367C12.8193 70.8308 15.6146 70.8308 15.4621 69.1367V60.9359C15.4621 56.3711 19.3503 52.7349 24.2194 52.7349H29.9494L35.8356 58.2441C36.0241 58.4193 36.2672 58.5337 36.5297 58.5707C36.7922 58.6077 37.0604 58.5656 37.2956 58.4501L37.7863 58.9101L34.278 68.7635C33.749 70.2456 36.1196 70.9896 36.6486 69.5074L39.7809 60.7138C40.2014 60.98 40.7346 60.9795 41.1554 60.7138L44.2804 69.5074C44.8095 70.9896 47.1801 70.2456 46.651 68.7635L43.1501 58.9055L43.631 58.4546C43.8677 58.5716 44.1383 58.6144 44.4029 58.5765C44.6674 58.5387 44.9121 58.4222 45.1007 58.2443L50.9796 52.735H56.7169C61.5861 52.735 65.4645 56.3712 65.4645 60.936V69.1368C65.4645 70.6997 67.9669 70.6997 67.9669 69.1368V60.936C67.9669 55.1133 62.9279 50.3914 56.7169 50.3914H50.9796L47.9718 47.5623V43.3761C48.9127 42.7122 49.747 41.9287 50.4547 41.0461H53.5968C55.999 41.0462 57.9718 39.1965 57.9718 36.9445V34.7359C58.7423 33.9103 59.2292 32.8462 59.2292 31.6711V29.325C59.2292 27.8322 58.4618 26.4635 57.2785 25.592C57.6714 24.2967 57.9684 22.7731 57.9694 21.0922C57.9656 12.0237 50.1403 4.68579 40.467 4.68579ZM40.467 7.02958C48.7986 7.02958 55.4665 13.281 55.4694 21.092C55.4686 22.4072 55.244 23.6196 54.942 24.6854C54.6835 24.6588 54.4242 24.6318 54.1535 24.6456L54.2267 24.6368H52.9743C52.9743 24.3117 52.9743 23.7471 52.9743 23.4672C52.9743 22.9129 52.7021 22.2976 51.7438 22.2976C48.2783 22.2976 45.506 19.7 45.506 16.4336C45.5159 15.7757 44.9432 15.2404 44.2414 15.2481C43.5501 15.2525 42.9662 15.7856 42.9743 16.4336C42.9743 19.7 40.2426 22.2976 36.7585 22.2976H29.2243C28.3461 22.2976 27.9767 22.876 27.9767 23.4718C27.9762 23.8602 27.9771 24.2485 27.9767 24.6368H26.7292C26.4792 24.6368 26.2396 24.6722 25.9992 24.7076C25.694 23.6368 25.468 22.4158 25.467 21.0915C25.467 13.2806 32.1353 7.02958 40.467 7.02958ZM44.256 20.6434C45.58 22.7124 47.8441 24.1924 50.4865 24.555L50.4718 34.0125C50.4718 35.7266 49.9867 37.3234 49.1461 38.6999H40.4767C38.8064 38.6964 38.8064 41.0491 40.4767 41.046H47.1052C45.3469 42.5033 43.036 43.3898 40.4792 43.3898C34.9176 43.3898 30.4628 39.2298 30.4767 34.0193L30.4914 24.6443H36.7633C39.9467 24.6443 42.7257 23.0335 44.256 20.6434ZM26.7292 26.9812H27.9767C27.976 29.3249 27.9742 31.6687 27.9742 34.0125L26.7291 34.0147C25.3225 34.0147 24.2291 32.9897 24.2291 31.671V29.325C24.2291 28.0063 25.3225 26.9812 26.7292 26.9812ZM52.9718 26.9812H54.2267C54.2511 26.9819 54.2755 26.9819 54.2999 26.9812C55.6183 26.9095 56.7267 28.0075 56.7267 29.3249V31.671C56.7267 32.9897 55.6333 34.0147 54.2267 34.0147H52.9694C52.9731 31.6937 52.9718 29.3323 52.9718 26.9812ZM55.4718 36.1913V36.9443C55.4718 37.9385 54.6572 38.6999 53.5968 38.6999H51.9245C52.2712 37.9553 52.544 37.174 52.7204 36.3584H54.2267C54.6589 36.3584 55.071 36.2892 55.4718 36.1913ZM35.467 44.7493C37.0026 45.379 38.695 45.7334 40.4767 45.7334C42.2528 45.7334 43.9401 45.3823 45.4694 44.7562V47.553L40.4694 52.2406L35.467 47.5599V44.7493ZM34.2218 49.6977L38.6969 53.9022L36.7145 55.763L32.2297 51.5676L34.2218 49.6977ZM46.7145 49.7065L48.6994 51.5581L44.2145 55.7628L42.2321 53.9019L46.7145 49.7065ZM40.467 55.5611L41.8244 56.8337L40.4694 58.1063L39.1095 56.8314L40.467 55.5611Z" fill="black"/>
</svg>
