<svg width="103" height="95" viewBox="0 0 103 95" fill="none" xmlns="http://www.w3.org/2000/svg">
<path d="M8.71566 19.2947C7.84125 19.2947 7.13242 19.9593 7.13232 20.7791V68.2789C7.13242 69.0987 7.84125 69.7632 8.71566 69.7633H21.5462C22.2859 73.1398 25.4886 75.7038 29.299 75.7038C33.1094 75.7038 36.309 73.1398 37.0487 69.7633H70.6265C71.3695 73.1383 74.5792 75.7038 78.3885 75.7038C82.1978 75.7038 85.3974 73.1385 86.1382 69.7635H94.2157C95.0901 69.7635 95.7989 69.0989 95.799 68.2791V48.9823C95.799 48.6894 95.7064 48.4026 95.5331 48.1588L82.8664 30.3463C82.5728 29.9334 82.0784 29.6853 81.549 29.6853H67.299V20.7791C67.2989 19.9593 66.5901 19.2947 65.7157 19.2947H8.71566ZM10.299 22.2633H64.1323V50.4694H10.299V22.2633ZM67.299 32.6541H80.7017L92.6324 49.4315V66.7945H86.1382C85.4009 63.4175 82.201 60.8571 78.3885 60.8571C74.5761 60.8571 71.366 63.4175 70.6265 66.7945H67.299V32.6541ZM72.0521 35.6227C71.1728 35.6197 70.4592 36.2886 70.4626 37.1129V48.9792C70.4594 49.8035 71.1729 50.4726 72.0521 50.4694H86.299C87.5842 50.4665 88.3307 49.1056 87.5855 48.124L78.5401 36.2461C78.2436 35.8556 77.7646 35.6237 77.2536 35.6227H72.0521ZM73.6323 38.5915H76.4372L83.2251 47.5006H73.6323V38.5915ZM10.299 53.4382H64.1323V66.7945H37.0487C36.3113 63.4175 33.1115 60.8571 29.299 60.8571C25.4866 60.8571 22.2835 63.4175 21.5462 66.7945H10.299V53.4382ZM29.299 63.8259C31.9411 63.8259 34.0428 65.7991 34.0428 68.276C34.0428 70.753 31.9411 72.7351 29.299 72.7351C26.6569 72.7351 24.5521 70.753 24.5521 68.276C24.5521 65.7991 26.6569 63.8259 29.299 63.8259ZM78.3885 63.8259C81.0306 63.8259 83.1323 65.7991 83.1323 68.276C83.1323 70.753 81.0306 72.7351 78.3885 72.7351C75.7464 72.7351 73.6323 70.753 73.6323 68.276C73.6323 65.7991 75.7464 63.8259 78.3885 63.8259Z" fill="black"/>
</svg>
