<svg width="81" height="75" viewBox="0 0 81 75" fill="none" xmlns="http://www.w3.org/2000/svg">
<path d="M40.4692 4.68823C38.5455 4.68823 37.0665 5.78132 35.7353 6.75506C34.4042 7.72876 33.1564 8.63747 32.2856 8.85622C31.4149 9.07502 29.8416 8.87836 28.1694 8.65956C26.4973 8.44032 24.6304 8.18113 22.9644 9.0829C21.2983 9.98467 20.5998 11.6279 19.9663 13.0952C19.3328 14.5625 18.7385 15.9331 18.1011 16.5307C17.4637 17.1283 16.004 17.6923 14.439 18.2862C12.8739 18.8801 11.1186 19.5282 10.1567 21.0901C9.19486 22.6521 9.46142 24.4 9.6953 25.9676C9.9292 27.5352 10.1508 29.0102 9.91749 29.8265C9.6842 30.6428 8.71493 31.815 7.67627 33.0629C6.63763 34.3109 5.46924 35.6975 5.46924 37.501C5.46924 39.3045 6.63763 40.6886 7.67627 41.9366C8.71493 43.1845 9.68418 44.3567 9.91749 45.173C10.1508 45.9893 9.92883 47.4552 9.6953 49.0228C9.46139 50.5905 9.19482 52.3384 10.1567 53.9003C11.1186 55.4622 12.8739 56.1194 14.439 56.7133C16.004 57.3072 17.4637 57.862 18.1011 58.4596C18.7385 59.0572 19.3328 60.4371 19.9663 61.9043C20.5998 63.3716 21.2983 65.0149 22.9644 65.9166C24.6304 66.8184 26.4973 66.5594 28.1694 66.3401C29.8416 66.1208 31.4149 65.9153 32.2856 66.1341C33.1564 66.3529 34.4042 67.2706 35.7353 68.2443C37.0665 69.218 38.5455 70.3111 40.4692 70.3111C42.393 70.3111 43.872 69.218 45.2031 68.2443C46.5343 67.2706 47.7821 66.3528 48.6528 66.1341C49.5236 65.9153 51.0871 66.1208 52.7593 66.3401C54.4314 66.5593 56.2983 66.8184 57.9644 65.9166C59.6304 65.0149 60.3289 63.3716 60.9624 61.9043C61.5959 60.4371 62.1902 59.0572 62.8276 58.4596C63.465 57.862 64.9344 57.3072 66.4995 56.7133C68.0646 56.1194 69.8198 55.4622 70.7817 53.9003C71.7436 52.3384 71.4673 50.5905 71.2334 49.0228C70.9995 47.4552 70.7779 45.9893 71.0112 45.173C71.2445 44.3567 72.2236 43.1845 73.2622 41.9366C74.3008 40.6886 75.4692 39.3045 75.4692 37.501C75.4692 35.6975 74.3008 34.3109 73.2622 33.0629C72.2236 31.815 71.2446 30.6428 71.0112 29.8265C70.7779 29.0102 70.9999 27.5352 71.2334 25.9676C71.4673 24.4 71.7436 22.6521 70.7817 21.0901C69.8198 19.5282 68.0646 18.8801 66.4995 18.2862C64.9344 17.6923 63.465 17.1283 62.8276 16.5307C62.1902 15.9331 61.5959 14.5625 60.9624 13.0952C60.3289 11.6279 59.6304 9.98467 57.9644 9.0829C56.2983 8.18113 54.4314 8.44023 52.7593 8.65956C51.0871 8.8788 49.5236 9.07502 48.6528 8.85622C47.7821 8.63743 46.5343 7.72876 45.2031 6.75506C43.872 5.78132 42.393 4.68823 40.4692 4.68823ZM40.4692 7.03202C41.2497 7.03202 42.392 7.6773 43.6626 8.60671C44.9332 9.53612 46.2669 10.687 48.0083 11.1245C49.7496 11.5621 51.5148 11.1851 53.1108 10.9756C54.7069 10.7661 56.0433 10.7493 56.7192 11.1151C57.3951 11.481 58.0433 12.5688 58.6479 13.9693C59.2526 15.3698 59.7902 16.9971 61.0649 18.1922C62.3397 19.3872 64.0657 19.8913 65.5596 20.4581C67.0534 21.025 68.2235 21.6326 68.6138 22.2662C69.004 22.8999 68.9835 24.1529 68.7603 25.6492C68.537 27.1455 68.1374 28.8002 68.604 30.4327C69.0706 32.0652 70.2982 33.3065 71.2896 34.4977C72.281 35.6889 72.9692 36.7689 72.9692 37.5006C72.9692 38.2323 72.281 39.3009 71.2896 40.4921C70.2982 41.6832 69.0706 42.9336 68.604 44.5661C68.1374 46.1987 68.537 47.8535 68.7603 49.3498C68.9835 50.8461 69.004 52.0991 68.6138 52.7327C68.2235 53.3664 67.0534 53.974 65.5596 54.5409C64.0657 55.1077 62.3397 55.6117 61.0649 56.8068C59.7902 58.0019 59.2526 59.62 58.6479 61.0205C58.0433 62.421 57.3951 63.518 56.7192 63.8838C56.0433 64.2497 54.7069 64.2328 53.1108 64.0233C51.5148 63.8138 49.7496 63.4371 48.0083 63.8745C46.2669 64.3121 44.9332 65.4628 43.6626 66.3923C42.392 67.3217 41.2497 67.9669 40.4692 67.9669C39.6888 67.9669 38.5391 67.3217 37.2686 66.3923C35.998 65.4628 34.6715 64.3119 32.9302 63.8745C31.1888 63.4369 29.4237 63.8138 27.8276 64.0233C26.2316 64.2328 24.8951 64.2497 24.2192 63.8838C23.5433 63.518 22.8952 62.421 22.2905 61.0205C21.6859 59.62 21.1483 58.0019 19.8735 56.8068C18.5988 55.6117 16.8654 55.1077 15.3716 54.5409C13.8777 53.974 12.7076 53.3664 12.3174 52.7327C11.9271 52.0991 11.9549 50.8461 12.1782 49.3498C12.4015 47.8535 12.8011 46.1987 12.3344 44.5661C11.8679 42.9336 10.633 41.6832 9.64156 40.4921C8.65019 39.3009 7.9692 38.2323 7.9692 37.5006C7.9692 36.7689 8.65019 35.6889 9.64156 34.4977C10.633 33.3065 11.8679 32.0652 12.3344 30.4327C12.801 28.8002 12.4014 27.1455 12.1782 25.6492C11.9549 24.1529 11.9271 22.8999 12.3174 22.2662C12.7076 21.6326 13.8777 21.025 15.3716 20.4581C16.8654 19.8913 18.5988 19.3872 19.8735 18.1922C21.1483 16.9971 21.6859 15.3698 22.2905 13.9693C22.8952 12.5688 23.5433 11.481 24.2192 11.1151C24.8951 10.7493 26.2316 10.7661 27.8276 10.9756C29.4237 11.1851 31.1888 11.5619 32.9302 11.1245C34.6715 10.6869 35.998 9.53612 37.2686 8.60671C38.5391 7.6773 39.6888 7.03202 40.4692 7.03202ZM30.457 23.4245C27.7104 23.4245 25.457 25.5394 25.457 28.1143C25.457 30.6893 27.7104 32.8018 30.457 32.8018C33.2036 32.8018 35.4497 30.6893 35.4497 28.1143C35.4497 25.5394 33.2036 23.4245 30.457 23.4245ZM54.1899 23.4245C53.866 23.4341 53.5588 23.5614 53.333 23.7793L25.8354 49.5582C25.7152 49.6659 25.6191 49.795 25.5527 49.9379C25.4863 50.0808 25.4511 50.2348 25.4489 50.3907C25.4468 50.5466 25.4778 50.7013 25.5403 50.8458C25.6027 50.9903 25.6953 51.1216 25.8125 51.2321C25.9298 51.3427 26.0694 51.4301 26.2232 51.4895C26.3769 51.5488 26.5418 51.5789 26.7081 51.5777C26.8744 51.5766 27.0387 51.5443 27.1916 51.4829C27.3444 51.4214 27.4826 51.3321 27.5981 51.22L55.103 25.441C55.2858 25.2764 55.4109 25.0636 55.4618 24.8309C55.5126 24.5981 55.4868 24.3564 55.3878 24.1377C55.2888 23.919 55.1212 23.7336 54.9073 23.6063C54.6933 23.4789 54.4432 23.4155 54.1899 23.4245ZM30.457 25.7682C31.8525 25.7682 32.957 26.8061 32.957 28.1143C32.957 29.4227 31.8525 30.458 30.457 30.458C29.0615 30.458 27.957 29.4227 27.957 28.1143C27.957 26.8061 29.0615 25.7682 30.457 25.7682ZM50.4814 42.1973C47.7348 42.1973 45.479 44.3099 45.479 46.8849C45.479 49.4598 47.7348 51.5746 50.4814 51.5746C53.2281 51.5746 55.4814 49.4598 55.4814 46.8849C55.4814 44.3099 53.2281 42.1973 50.4814 42.1973ZM50.4814 44.5411C51.8769 44.5411 52.9814 45.5766 52.9814 46.8849C52.9814 48.1932 51.8769 49.231 50.4814 49.231C49.0859 49.231 47.9814 48.1932 47.9814 46.8849C47.9814 45.5766 49.0859 44.5411 50.4814 44.5411Z" fill="black"/>
</svg>
